# xmcd
#
# Track frame offsets:
# 150
# 17202
# 29424
# 43428
# 62441
# 80117
# 92281
# 109338
# 126688
# 148669
#
# Disc length: 2261 seconds
#
#
# Revision: 0
# Processed by: cddbd v1.5.1PL0 Copyright (c) Steve Scherf et al.
# Submitted via: FreeRIP 2.931 
#
DISCID=9108d30a
DTITLE=McRaes - Perfect Love
DYEAR=2005
DGENRE=Contemporary Christian
TTITLE0=A Way Through
TTITLE1=Perfect Love
TTITLE2=Hand of Grace
TTITLE3=Like a Flood
TTITLE4=He Knows My Name
TTITLE5=Low and Down
TTITLE6=Let Him Shine
TTITLE7=Word of the Lord
TTITLE8=Healing My Heart
TTITLE9=Saved
EXTD=
EXTT0=
EXTT1=
EXTT2=
EXTT3=
EXTT4=
EXTT5=
EXTT6=
EXTT7=
EXTT8=
EXTT9=
PLAYORDER=
